<svg width="509" height="557" viewBox="0 0 509 557" fill="none" xmlns="http://www.w3.org/2000/svg">
<g clip-path="url(#clip0)">
<path d="M449.111 503.28L285.562 503.821C242.173 490.794 206.624 445.548 206.399 377.712C206.356 367.492 207.128 357.286 208.71 347.189L340.44 317.618L442.063 294.808C449.551 301.508 456.529 308.757 462.938 316.495L365.763 367.764L319.922 391.951L371.434 374.194L478.35 337.339C485.017 347.525 490.958 358.168 496.128 369.188L463.869 402.5L500.361 378.629C500.517 378.995 500.672 379.361 500.827 379.728C523.955 434.588 495.259 503.127 449.111 503.28Z" fill="#F2F2F2"/>
<path d="M422.233 279.454C397.501 286.551 367.094 295.519 335.83 304.839C290.628 318.32 243.637 332.545 209.427 342.944L209.449 342.822C210.714 335.525 213.687 328.63 218.126 322.7C243.468 289.777 275.737 266.778 311.651 258.237H311.654C321.753 255.83 332.097 254.597 342.479 254.562C371.053 254.468 398.118 263.422 422.233 279.454Z" fill="#F2F2F2"/>
<path d="M257.021 518.687C346.868 518.687 419.703 513.261 419.703 506.567C419.703 499.874 346.868 494.447 257.021 494.447C167.174 494.447 94.3389 499.874 94.3389 506.567C94.3389 513.261 167.174 518.687 257.021 518.687Z" fill="#3F3D56"/>
<path d="M232.761 305.706C232.761 393.283 180.656 423.861 116.381 423.861C52.1054 423.861 0 393.283 0 305.706C0 218.129 116.381 106.718 116.381 106.718C116.381 106.718 232.761 218.129 232.761 305.706Z" fill="#F2F2F2"/>
<path d="M112.141 410.464L113.333 337.171L162.937 246.496L113.52 325.673L114.056 292.717L148.242 227.115L114.197 283.995V283.996L115.161 224.723L151.769 172.496L115.312 215.402L115.914 106.717L112.131 250.597L112.442 244.661L75.2219 187.737L111.845 256.055L108.377 322.253L108.273 320.496L65.3653 260.59L108.144 326.703L107.71 334.982L107.632 335.106L107.668 335.786L98.8692 503.734H110.624L112.035 416.985L154.708 351.036L112.141 410.464Z" fill="#3F3D56"/>
<path d="M371.673 20.7679V482.893C371.668 488.398 369.476 493.676 365.579 497.567C361.682 501.459 356.398 503.645 350.889 503.647H163.127C160.397 503.652 157.693 503.118 155.17 502.077C152.647 501.036 150.355 499.508 148.424 497.58C146.493 495.652 144.962 493.362 143.918 490.842C142.875 488.322 142.339 485.621 142.342 482.893V20.7679C142.342 18.0405 142.879 15.3399 143.924 12.8201C144.968 10.3003 146.499 8.01077 148.429 6.08225C150.359 4.15373 152.651 2.62399 155.172 1.58039C157.694 0.536796 160.397 -0.0002188 163.127 1.62331e-05H191.225V3.60035C191.224 8.13538 193.027 12.4849 196.235 15.6924C199.444 18.8998 203.796 20.7024 208.335 20.7037H303.832C307.486 20.7115 311.044 19.5413 313.978 17.3672C314.572 16.936 315.134 16.4643 315.662 15.9555C317.334 14.3607 318.664 12.4432 319.571 10.3194C320.479 8.19559 320.945 5.90969 320.942 3.60035V1.62331e-05H350.889C353.618 -0.00081935 356.322 0.535788 358.844 1.57917C361.366 2.62256 363.657 4.15228 365.588 6.08092C367.518 8.00956 369.049 10.2993 370.093 12.8194C371.137 15.3394 371.674 18.0404 371.673 20.7679Z" fill="#3F3D56"/>
<path d="M248.466 180.944C248.472 193.84 240.801 198.346 231.337 198.351C231.117 198.351 230.898 198.349 230.68 198.344C230.242 198.335 229.808 198.315 229.378 198.285C220.836 197.685 214.196 192.954 214.191 180.96C214.185 168.548 230.053 152.877 231.243 151.718L231.246 151.717C231.291 151.673 231.314 151.651 231.314 151.651C231.314 151.651 248.459 168.048 248.466 180.944Z" fill="#FAFF00"/>
<path d="M230.712 196.379L236.975 187.625L230.696 197.339L230.68 198.344C230.242 198.335 229.807 198.315 229.378 198.285L230.047 185.383L230.042 185.283L230.053 185.264L230.117 184.045L223.813 174.313L230.135 183.131L230.151 183.39L230.657 173.642L225.259 163.584L230.722 171.929L231.243 151.718L231.245 151.651V151.717L231.165 167.655L236.529 161.334L231.142 169.028L231.005 177.756L236.015 169.377L230.985 179.039L230.909 183.893L238.18 172.23L230.881 185.586L230.712 196.379Z" fill="#3F3D56"/>
<path d="M338.348 345.561H175.667V361.444V385.632V399.24L189.287 385.632H338.348V345.561Z" fill="#FAFF00"/>
<path d="M303.481 355.29H211.961V362.705H303.481V355.29Z" fill="white"/>
<path d="M303.481 366.412H211.961V373.827H303.481V366.412Z" fill="white"/>
<path d="M175.667 272.485H338.348V288.368V312.556V326.164L324.729 312.556H175.667V272.485Z" fill="#FAFF00"/>
<path d="M294.919 282.927H203.399V290.342H294.919V282.927Z" fill="white"/>
<path d="M294.919 294.049H203.399V301.464H294.919V294.049Z" fill="white"/>
<path d="M169.245 104.407V235.296H344.77V104.407H169.245ZM191.863 106.054C192.422 106.054 192.969 106.22 193.434 106.531C193.899 106.841 194.261 107.282 194.475 107.798C194.689 108.315 194.745 108.883 194.636 109.431C194.527 109.979 194.258 110.482 193.862 110.877C193.467 111.272 192.963 111.541 192.415 111.65C191.866 111.759 191.298 111.703 190.781 111.489C190.265 111.276 189.823 110.913 189.512 110.449C189.202 109.984 189.036 109.438 189.036 108.879C189.036 108.508 189.109 108.141 189.251 107.798C189.393 107.456 189.601 107.144 189.864 106.882C190.126 106.62 190.438 106.411 190.781 106.269C191.124 106.127 191.492 106.054 191.863 106.054V106.054ZM174.9 111.704C174.34 111.704 173.794 111.539 173.329 111.228C172.864 110.918 172.502 110.477 172.288 109.96C172.074 109.444 172.018 108.876 172.127 108.328C172.236 107.78 172.505 107.277 172.9 106.882C173.296 106.487 173.8 106.218 174.348 106.109C174.896 106 175.465 106.056 175.981 106.269C176.498 106.483 176.94 106.845 177.25 107.31C177.561 107.774 177.727 108.321 177.727 108.879C177.727 109.629 177.429 110.347 176.899 110.877C176.369 111.407 175.649 111.704 174.9 111.704V111.704ZM180.554 108.879C180.554 108.321 180.72 107.774 181.031 107.31C181.341 106.845 181.783 106.483 182.299 106.269C182.816 106.056 183.384 106 183.933 106.109C184.481 106.218 184.985 106.487 185.381 106.882C185.776 107.277 186.045 107.78 186.154 108.328C186.263 108.876 186.207 109.444 185.993 109.96C185.779 110.477 185.417 110.918 184.952 111.228C184.487 111.539 183.94 111.704 183.381 111.704C183.01 111.704 182.642 111.631 182.299 111.489C181.956 111.347 181.645 111.139 181.382 110.877C181.12 110.615 180.911 110.303 180.769 109.96C180.627 109.618 180.554 109.25 180.554 108.879V108.879ZM277.859 198.572H183.381V128.419H277.859V198.572Z" fill="#F2F2F2"/>
<path d="M341.001 106.761H335.346V107.467H341.001V106.761Z" fill="white"/>
<path d="M341.001 108.879H335.346V109.586H341.001V108.879Z" fill="white"/>
<path d="M341.001 110.998H335.346V111.704H341.001V110.998Z" fill="white"/>
<path d="M335.346 127.242H292.702V129.36H335.346V127.242Z" fill="white"/>
<path d="M335.346 134.539H292.702V136.658H335.346V134.539Z" fill="white"/>
<path d="M335.346 141.837H292.702V143.956H335.346V141.837Z" fill="white"/>
<path d="M335.346 149.135H292.702V151.254H335.346V149.135Z" fill="white"/>
<path d="M335.346 156.433H292.702V158.551H335.346V156.433Z" fill="white"/>
<path d="M335.346 163.731H292.702V165.849H335.346V163.731Z" fill="white"/>
<path d="M335.346 171.028H292.702V173.147H335.346V171.028Z" fill="white"/>
<path d="M335.346 178.326H292.702V180.445H335.346V178.326Z" fill="white"/>
<path d="M335.346 185.624H292.702V187.743H335.346V185.624Z" fill="white"/>
<path d="M335.346 192.922H292.702V195.04H335.346V192.922Z" fill="white"/>
<path d="M189.036 206.34C190.597 206.34 191.863 205.075 191.863 203.515C191.863 201.955 190.597 200.69 189.036 200.69C187.474 200.69 186.209 201.955 186.209 203.515C186.209 205.075 187.474 206.34 189.036 206.34Z" fill="white"/>
<path d="M198.696 206.34C200.257 206.34 201.523 205.075 201.523 203.515C201.523 201.955 200.257 200.69 198.696 200.69C197.134 200.69 195.868 201.955 195.868 203.515C195.868 205.075 197.134 206.34 198.696 206.34Z" fill="white"/>
<path d="M208.355 206.34C209.917 206.34 211.183 205.075 211.183 203.515C211.183 201.955 209.917 200.69 208.355 200.69C206.794 200.69 205.528 201.955 205.528 203.515C205.528 205.075 206.794 206.34 208.355 206.34Z" fill="white"/>
<path d="M335.346 217.405H292.702V229.411H335.346V217.405Z" fill="#FAFF00"/>
<path d="M103.393 381.792L101.83 436.46L85.1559 500.5C85.1559 500.5 88.8034 511.434 86.198 514.037C83.5927 516.64 71.608 521.326 71.608 521.326L81.5084 384.916L103.393 381.792Z" fill="#2F2E41"/>
<path d="M67.1919 513.77C67.1919 513.77 61.2456 526.841 69.5705 528.03C77.8953 529.218 116.348 532.387 113.97 525.653C111.591 518.919 82.6524 512.582 82.6524 512.582L67.1919 513.77Z" fill="#2F2E41"/>
<path d="M45.0332 333.372C45.0332 333.372 51.2861 367.214 55.4547 372.941C59.6233 378.668 53.3704 420.32 53.3704 420.32C53.3704 420.32 43.991 480.195 48.1596 489.566C52.3282 498.938 51.2861 495.814 50.765 501.021C50.2439 506.227 49.2018 510.392 50.765 515.078C52.3282 519.764 52.3282 519.243 52.8493 521.847C53.3704 524.45 52.8493 538.507 52.8493 538.507C52.8493 538.507 75.2555 546.317 78.903 534.863C78.903 534.863 73.6922 527.574 75.2555 521.847C76.8854 516.083 77.7612 510.133 77.8609 504.145V493.211L101.83 403.659L107.562 371.379C107.562 371.379 105.999 338.578 100.267 335.454C94.5352 332.33 45.0332 333.372 45.0332 333.372Z" fill="#2F2E41"/>
<path d="M54.4125 535.904C54.4125 535.904 46.5964 553.086 57.539 554.648C68.4815 556.209 119.026 560.375 115.899 551.524C112.773 542.673 74.7344 534.342 74.7344 534.342L54.4125 535.904Z" fill="#2F2E41"/>
<path d="M64.3184 183.446C75.8296 183.446 85.1613 174.122 85.1613 162.62C85.1613 151.118 75.8296 141.794 64.3184 141.794C52.8071 141.794 43.4754 151.118 43.4754 162.62C43.4754 174.122 52.8071 183.446 64.3184 183.446Z" fill="#FFB9B9"/>
<path d="M49.672 171.823L50.06 198.419L75.6137 198.506C75.6137 198.506 69.1284 177.686 72.0333 173.332C74.9382 168.978 49.672 171.823 49.672 171.823Z" fill="#FFB9B9"/>
<path d="M87.7612 213.101C87.7612 213.101 69.5237 189.672 55.4547 199.565C41.3857 209.457 36.175 232.886 36.175 232.886L39.3014 298.488C39.3014 298.488 47.1175 307.86 42.4278 314.107C37.7382 320.355 35.1328 318.793 38.7803 323.479C42.4278 328.165 46.5965 331.81 45.0332 333.372C43.47 334.933 46.5965 335.975 46.5965 335.975L101.83 337.537C101.83 337.537 100.267 335.454 104.957 329.206C109.646 322.958 103.915 314.628 104.957 311.504C105.999 308.38 107.041 312.025 107.562 304.736C108.083 297.447 87.7612 213.101 87.7612 213.101Z" fill="#3F3D56"/>
<path d="M82.5505 347.429C82.5505 347.429 83.5927 360.445 91.4088 362.528C94.3398 363.309 96.5381 361.82 98.141 359.654C99.6377 357.578 100.477 355.102 100.55 352.544C100.623 349.987 99.926 347.467 98.5501 345.309L96.6195 342.223L82.5505 347.429Z" fill="#FFB9B9"/>
<path d="M34.3512 186.809C34.3512 186.809 33.8301 197.222 34.3512 198.784C34.8723 200.346 35.3934 201.907 34.3512 203.469C33.3091 205.031 33.8301 210.238 34.8723 210.758C35.9144 211.279 32.788 215.965 33.8301 219.089C34.8723 222.213 35.9144 223.254 36.4355 224.295C36.9566 225.337 37.796 227.202 37.796 227.202C37.796 227.202 53.1099 194.618 65.6156 202.428C78.1214 210.238 88.0218 212.841 88.0218 212.841C88.0218 212.841 81.2478 176.396 34.3512 186.809Z" fill="#3F3D56"/>
<path d="M57.0179 211.019C57.0179 211.019 40.3435 212.581 41.3857 234.448C42.4278 256.315 39.8225 290.678 39.8225 290.678C39.8225 290.678 68.4815 334.413 73.1712 337.537C77.8608 340.661 78.3819 340.14 77.8608 342.743C77.3398 345.346 76.8187 347.429 78.903 349.512C80.1334 350.75 81.5377 351.802 83.0716 352.636C83.0716 352.636 99.7459 346.908 98.1827 341.702C96.6195 336.495 89.3245 328.165 89.3245 328.165C89.3245 328.165 76.8187 307.86 76.2976 304.736C75.7766 301.612 75.7765 302.133 74.2133 300.571C72.6501 299.009 68.4815 292.761 68.4815 289.637V279.745L72.8501 226.88C73.0484 224.727 72.7884 222.556 72.0874 220.51C71.3863 218.465 70.26 216.59 68.7824 215.011C66.3025 212.418 62.5543 210.355 57.0179 211.019Z" fill="#3F3D56"/>
<path d="M77.76 146.56C79.1183 146.936 80.5489 146.968 81.9228 146.654C83.2967 146.339 84.5708 145.688 85.63 144.759C87.6669 142.825 88.3515 139.475 86.9022 137.069C85.6507 134.993 83.2166 133.977 80.9005 133.255C75.7913 131.664 70.471 130.853 65.1194 130.85C62.5681 130.849 59.904 131.066 57.7208 132.385C56.6405 133.038 55.7256 133.934 54.6575 134.607C52.6937 135.843 50.3355 136.254 48.1794 137.113C45.9747 138.008 43.9882 139.366 42.3542 141.095C40.7203 142.824 39.4771 144.884 38.7087 147.134C38.2141 148.661 37.9051 150.241 37.7883 151.841C37.4359 156.225 38.2111 160.625 40.0402 164.625C42.9477 170.959 48.4815 176.286 49.2634 183.211C52.2422 180.712 53.1154 176.521 55.4227 173.392C57.1403 171.079 59.5922 169.416 62.3779 168.675C63.1564 168.573 63.8882 168.246 64.4841 167.735C64.8852 167.181 65.1144 166.521 65.1432 165.838L66.5733 155.55C66.8644 153.456 67.2576 151.168 68.8657 149.794C69.8743 149.044 71.043 148.537 72.2803 148.313C75.2066 147.586 78.1876 147.1 81.1935 146.861" fill="#2F2E41"/>
<path opacity="0.1" d="M42.3568 298.116L71.608 336.044C71.608 336.044 44.6734 313.547 42.3568 298.116Z" fill="black"/>
<path opacity="0.1" d="M70.4334 256.122L70.1566 291.943L87.1454 317.405L73.2454 288.856L70.4334 256.122Z" fill="black"/>
<path d="M386.575 493.538L383.19 491.025C383.19 491.025 380.949 503.532 383.449 505.406C385.95 507.28 395.327 510.404 395.327 514.151C395.327 517.899 416.583 522.896 417.208 517.275C417.833 511.653 415.332 508.53 415.332 508.53C415.332 508.53 405.33 498.535 404.079 496.661C402.829 494.787 399.703 491.04 399.703 491.04L386.575 493.538Z" fill="#2F2E41"/>
<path d="M436.588 338.001C436.588 338.001 436.494 338.551 436.331 339.556C436.181 340.45 435.975 341.711 435.725 343.267C433.099 359.277 425.441 406.406 425.96 407.961C426.585 409.835 430.961 416.707 425.96 418.581C425.282 418.974 424.739 419.565 424.403 420.273C423.329 422.264 422.444 424.352 421.759 426.507C418.777 435.152 415.588 448.988 413.744 458.57C412.938 462.78 412.388 466.166 412.225 467.94C412.169 468.35 412.162 468.765 412.206 469.177C412.832 471.675 408.455 480.42 406.58 482.919C404.705 485.418 401.579 487.916 402.204 490.415C402.829 492.913 386.575 499.785 384.7 495.412C382.824 491.039 382.824 488.541 382.199 487.292C381.574 486.042 380.949 477.297 384.074 476.048C387.2 474.799 385.325 452.936 388.451 448.564C389.495 447.108 391.089 442.18 392.758 436.252C393.414 433.928 394.077 431.454 394.727 428.975C397.365 418.812 399.703 408.586 399.703 408.586L399.078 335.503L433.462 331.13L434.343 333.073L436.1 336.927L436.588 338.001Z" fill="#2F2E41"/>
<path d="M438.463 457.933C438.463 457.933 443.464 452.936 445.965 457.933C448.465 462.93 450.966 482.294 455.342 486.667C459.718 491.04 465.345 512.902 459.093 514.151C452.842 515.401 445.965 512.278 445.34 508.53C444.715 504.782 431.586 485.418 431.586 483.544C431.586 481.67 440.338 474.799 440.338 474.799L438.463 457.933Z" fill="#2F2E41"/>
<path d="M361.569 303.645C361.569 303.645 369.696 376.729 371.571 383.6C373.447 390.471 383.449 416.707 386.575 421.079C389.701 425.452 409.706 461.056 412.206 462.93C414.707 464.804 419.708 469.802 419.708 469.802C419.708 469.802 429.086 479.171 430.336 481.045C431.586 482.919 442.214 477.297 442.839 473.549C443.464 469.802 442.214 463.555 441.589 461.056C440.964 458.558 442.839 454.81 440.964 452.936C439.088 451.062 429.711 441.692 429.711 437.32C429.711 432.947 413.457 407.337 407.205 401.715C400.954 396.093 402.204 386.724 402.204 386.724V348.62L436.588 338.001C436.588 338.001 434.712 308.018 430.336 308.018C425.96 308.018 368.446 298.024 361.569 303.645Z" fill="#2F2E41"/>
<path d="M412.206 199.329C423.6 199.329 432.837 190.101 432.837 178.716C432.837 167.332 423.6 158.103 412.206 158.103C400.813 158.103 391.576 167.332 391.576 178.716C391.576 190.101 400.813 199.329 412.206 199.329Z" fill="#9F616A"/>
<path d="M405.33 194.957C405.33 194.957 402.829 204.327 399.703 206.825C396.578 209.324 407.83 219.943 407.83 219.943L429.086 221.192L432.837 209.324C432.837 209.324 425.96 195.582 427.835 186.837C429.711 178.092 405.33 194.957 405.33 194.957Z" fill="#9F616A"/>
<path d="M396.578 205.576C396.578 205.576 402.204 206.201 403.454 208.075C404.705 209.949 413.457 215.57 420.333 214.321C427.21 213.072 431.586 211.198 432.837 211.822C434.087 212.447 436.588 225.565 436.588 225.565L429.711 245.553L430.961 300.522L432.837 315.514C432.837 315.514 436.588 310.517 421.584 313.64C406.58 316.763 387.2 311.141 380.949 310.517C374.697 309.892 364.069 308.018 363.444 304.27C362.819 300.522 365.32 286.78 365.32 286.78L375.322 244.929L381.574 222.441L396.578 205.576Z" fill="#3F3D56"/>
<path d="M402.491 202.757C402.491 202.757 397.203 199.954 395.327 202.453C393.452 204.951 369.696 208.699 369.696 210.573C369.696 212.447 364.695 263.043 365.945 267.416C367.195 271.789 363.444 276.786 363.444 276.786L359.068 295.525C359.068 295.525 347.19 331.13 352.192 332.379C357.193 333.629 361.569 332.379 363.444 332.379C365.32 332.379 364.695 308.643 369.696 302.396C374.697 296.15 381.574 280.534 382.824 277.41C384.074 274.287 399.703 231.186 399.078 226.189C398.453 221.192 402.491 202.757 402.491 202.757Z" fill="#D0CDE1"/>
<path d="M428.461 205.576C428.461 205.576 433.462 205.576 434.087 206.825C434.712 208.075 440.964 216.195 443.464 218.069C445.965 219.943 454.717 228.063 454.717 229.937C454.717 231.811 436.588 245.553 436.588 245.553C436.588 245.553 429.086 282.407 432.837 294.9C436.587 307.393 442.214 337.376 439.713 339.25C437.213 341.124 431.586 341.749 431.586 339.25C431.586 336.752 427.835 309.892 424.71 304.27C421.584 298.648 412.206 263.043 415.957 253.049C419.708 243.055 428.461 205.576 428.461 205.576Z" fill="#D0CDE1"/>
<path d="M345.94 267.416C345.94 267.416 345.315 286.78 352.192 296.774C356.652 303.455 360.422 310.571 363.444 318.012C363.444 318.012 374.697 314.889 376.573 311.141C378.448 307.393 390.326 310.517 390.326 309.267C390.326 308.018 375.947 301.772 374.697 300.522C373.447 299.273 369.071 299.273 366.57 296.774C364.069 294.276 363.444 288.654 363.444 288.654L360.944 272.413L345.94 267.416Z" fill="#9F616A"/>
<path d="M397.997 166.006C396.4 165.968 394.826 165.608 393.371 164.948C390.228 163.254 389.395 158.432 391.787 155.783C392.447 155.109 393.185 154.516 393.985 154.017L398.737 150.785C400.839 149.356 402.99 147.903 405.441 147.229C407.688 146.719 410.004 146.582 412.295 146.825C416.764 146.983 421.186 147.786 425.424 149.21C429.614 150.747 433.523 153.319 436.061 156.988C440.085 162.805 440.14 170.65 437.924 177.365C435.708 184.081 431.499 189.928 427.351 195.657L425.199 185.165C425.007 184.231 424.759 183.206 423.982 182.653C422.048 181.279 419.683 184.101 417.31 184.083C415.786 184.071 414.506 182.818 413.928 181.408C413.455 179.958 413.202 178.445 413.178 176.92C412.895 173.705 411.771 169.233 408.724 167.46C405.885 165.808 401.188 166.296 397.997 166.006Z" fill="#2F2E41"/>
<path opacity="0.1" d="M399.155 338.505C399.155 338.505 401.266 399.529 402.517 401.403C403.767 403.277 402.517 338.313 402.517 338.313L399.155 338.505Z" fill="black"/>
<path d="M374.697 210.573H369.696C369.696 210.573 348.441 239.307 350.941 241.181C353.442 243.055 350.941 248.052 350.941 248.052L345.94 257.422C345.94 257.422 339.688 263.043 341.564 264.293C343.439 265.542 345.94 270.539 345.94 270.539C345.94 270.539 358.443 268.665 362.194 276.161L370.302 265.933L374.697 210.573Z" fill="#D0CDE1"/>
<path d="M431.586 264.293C431.586 264.293 417.833 264.917 402.204 254.923L386.575 248.052C386.575 248.052 372.822 226.814 371.571 230.562C370.321 234.31 373.447 241.805 373.447 241.805C373.447 241.805 352.965 245.705 354.095 251.68C354.328 252.911 364.695 249.926 364.695 249.926C364.695 249.926 362.819 261.794 373.447 262.419C384.074 263.044 387.2 260.545 387.2 260.545C387.2 260.545 432.211 298.024 439.713 286.155C447.215 274.287 431.586 264.293 431.586 264.293Z" fill="#9F616A"/>
<path d="M447.84 227.439L454.717 229.937V248.677L457.218 252.425C457.218 252.425 456.593 259.92 454.717 261.794C452.842 263.668 449.091 263.043 450.341 267.416C451.092 270.267 451.304 273.233 450.966 276.161C450.966 276.161 439.713 290.528 439.088 288.654C438.463 286.78 429.711 263.668 428.46 263.668C427.21 263.668 440.964 227.439 440.964 227.439L447.84 227.439Z" fill="#D0CDE1"/>
<path d="M365.632 322.073C365.632 322.073 359.168 315.826 362.4 315.514C365.632 315.201 376.885 308.955 378.761 312.078C380.636 315.201 365.632 322.073 365.632 322.073Z" fill="#2F2E41"/>
<path d="M150.331 488.11C150.331 504.129 140.801 509.722 129.044 509.722C128.772 509.722 128.5 509.719 128.228 509.713C127.683 509.701 127.144 509.675 126.611 509.639C116 508.889 107.757 503.008 107.757 488.11C107.757 472.693 127.475 453.239 128.956 451.799L128.958 451.796C129.015 451.741 129.044 451.713 129.044 451.713C129.044 451.713 150.331 472.091 150.331 488.11Z" fill="#FAFF00"/>
<path d="M128.268 507.271L136.054 496.401L128.249 508.465L128.228 509.713C127.683 509.701 127.144 509.675 126.611 509.639L127.45 493.612L127.444 493.488L127.458 493.465L127.537 491.951L119.712 479.858L127.562 490.816L127.58 491.137L128.214 479.028L121.515 466.532L128.296 476.903L128.956 451.799L128.958 451.713V451.796L128.848 471.592L135.517 463.744L128.821 473.298L128.644 484.139L134.871 473.735L128.619 485.735L128.52 491.762L137.56 477.28L128.486 493.865L128.268 507.271Z" fill="#3F3D56"/>
</g>
<defs>
<clipPath id="clip0">
<rect width="509" height="557" fill="white"/>
</clipPath>
</defs>
</svg>
