<svg width="148" height="33" viewBox="0 0 148 33" fill="none" xmlns="http://www.w3.org/2000/svg">
<path d="M19.6408 24.3044C18.8391 28.1272 16.5266 30.0231 12.765 30.0231C9.6508 30.0231 8.10913 28.7178 8.10913 26.1381C8.10913 25.5787 8.1708 24.9571 8.32496 24.3044L11.6858 8.42275C12.4875 4.59996 14.7691 2.7041 18.5616 2.7041C21.6758 2.7041 23.2483 4.00945 23.2483 6.58906C23.2483 7.14849 23.1866 7.739 23.0325 8.42275L22.2 12.1834H17.8216L18.6233 8.42275C18.6541 8.23628 18.685 8.0498 18.685 7.8944C18.685 7.27281 18.3458 6.93093 17.6366 6.93093H17.6058C16.7425 6.93093 16.2183 7.42821 16.0025 8.42275L12.6725 24.3044C12.6416 24.4909 12.6108 24.6774 12.6108 24.8328C12.6108 25.4855 12.95 25.7963 13.6591 25.7963C14.5225 25.7963 15.0775 25.299 15.2625 24.3044L16.0641 20.5438H20.4425L19.6408 24.3044Z" fill="black"/>
<path d="M32.1283 24.3044C31.3267 28.1272 29.0142 30.0231 25.2525 30.0231C22.1383 30.0231 20.5967 28.7178 20.5967 26.1381C20.5967 25.5787 20.6583 24.9571 20.8125 24.3044L24.1733 8.42275C24.975 4.59996 27.2567 2.7041 31.0492 2.7041C34.1633 2.7041 35.7358 4.00945 35.7358 6.58906C35.7358 7.14849 35.6742 7.739 35.52 8.42275L32.1283 24.3044ZM31.1108 8.42275C31.1417 8.23628 31.1725 8.0498 31.1725 7.8944C31.1725 7.27281 30.8333 6.93093 30.1242 6.93093H30.0933C29.23 6.93093 28.7058 7.42821 28.49 8.42275L25.16 24.3044C25.1292 24.4909 25.0983 24.6774 25.0983 24.8328C25.0983 25.4855 25.4375 25.7963 26.1467 25.7963C27.01 25.7963 27.565 25.299 27.75 24.3044L31.1108 8.42275Z" fill="black"/>
<path d="M38.141 3.10791H44.1843C47.0518 3.10791 48.4701 4.38217 48.4701 6.89962C48.4701 7.49014 48.4085 8.11173 48.2543 8.82656L45.0785 23.8691C44.2768 27.6608 42.026 29.5878 38.3568 29.5878H32.5293L38.141 3.10791ZM41.6251 7.33474L37.8326 25.392H39.1276C39.991 25.392 40.5151 24.8947 40.731 23.9002L43.9068 8.85764C43.9376 8.67116 43.9685 8.48469 43.9685 8.32929C43.9685 7.67661 43.6293 7.33474 42.9201 7.33474H41.6251Z" fill="black"/>
<path d="M50.9983 3.10791H61.2967L60.4025 7.33474H54.4825L53.0333 14.2655H58.1208L57.2267 18.4923H52.1392L50.69 25.392H56.61L55.7158 29.6188H45.4175L50.9983 3.10791Z" fill="black"/>
<path d="M62.4376 3.10791H68.1726C71.0401 3.10791 72.4584 4.38217 72.4584 6.89962C72.4584 7.49014 72.3968 8.11173 72.2426 8.82656L71.4409 12.7426C70.9476 15.1357 69.6526 16.6897 67.5868 17.4045L69.2209 29.6188H64.4418L63.8559 18.2126H63.6093L61.2043 29.6188H56.8259L62.4376 3.10791ZM65.9218 7.33474L64.4726 14.2344H64.9968C65.4593 14.2344 65.7676 14.2033 65.9218 14.1412C66.5076 13.9236 66.9084 13.4574 67.0626 12.7115L67.8643 8.79548C67.8951 8.609 67.9259 8.42253 67.9259 8.26713C67.9259 7.61446 67.5868 7.27258 66.8776 7.27258H65.9218V7.33474Z" fill="black"/>
<path d="M80.3826 3.10791H84.7609L82.4176 14.2344H85.0076L87.3509 3.10791H91.7293L86.1484 29.6188H81.7701L84.1134 18.4923H81.5234L79.1801 29.6188H74.8018L80.3826 3.10791Z" fill="black"/>
<path d="M100.116 24.3044C99.3142 28.1272 97.0017 30.0231 93.2401 30.0231C90.1259 30.0231 88.5842 28.7178 88.5842 26.1381C88.5842 25.5787 88.6459 24.9571 88.8001 24.3044L92.1609 8.42275C92.9626 4.59996 95.2442 2.7041 99.0367 2.7041C102.151 2.7041 103.723 4.00945 103.723 6.58906C103.723 7.14849 103.662 7.739 103.508 8.42275L100.116 24.3044ZM99.0984 8.42275C99.1292 8.23628 99.1601 8.0498 99.1601 7.8944C99.1601 7.27281 98.8209 6.93093 98.1117 6.93093H98.0809C97.2176 6.93093 96.6934 7.42821 96.4776 8.42275L93.1167 24.3044C93.0859 24.4909 93.0551 24.6774 93.0551 24.8328C93.0551 25.4855 93.3942 25.7963 94.1034 25.7963C94.9667 25.7963 95.5217 25.299 95.7067 24.3044L99.0984 8.42275Z" fill="black"/>
<path d="M112.85 24.3042C112.048 28.127 109.736 30.0229 105.974 30.0229C102.86 30.0229 101.318 28.7175 101.318 26.1379C101.318 25.5785 101.38 24.9569 101.534 24.3042L106.005 3.10791H110.383L105.913 24.3042C105.882 24.4907 105.851 24.6772 105.851 24.8326C105.851 25.4852 106.19 25.796 106.899 25.796C107.763 25.796 108.318 25.2988 108.503 24.3042L112.943 3.10791H117.321L112.85 24.3042Z" fill="black"/>
<path d="M117.629 8.42275C118.431 4.59996 120.712 2.7041 124.505 2.7041C127.619 2.7041 129.192 4.00945 129.192 6.58906C129.192 7.14849 129.13 7.739 128.976 8.42275L128.174 12.1834H123.796L124.597 8.42275C124.628 8.23628 124.659 8.0498 124.659 7.8944C124.659 7.27281 124.32 6.93093 123.611 6.93093H123.58C122.717 6.93093 122.192 7.42821 121.977 8.42275L121.483 10.7848C121.452 10.9091 121.452 11.0334 121.452 11.1578C121.452 12.1834 122.316 13.3955 124.012 14.8562C125.646 16.2237 126.478 17.8399 126.478 19.6425C126.478 20.1087 126.417 20.5749 126.324 21.0411L125.615 24.3355C124.813 28.1583 122.532 30.0542 118.739 30.0542C115.625 30.0542 114.052 28.7488 114.052 26.1381C114.052 25.5787 114.114 24.9882 114.268 24.3044L115.07 20.5438H119.448L118.647 24.3044C118.616 24.4909 118.585 24.6774 118.585 24.8328C118.585 25.4855 118.924 25.7963 119.633 25.7963C120.497 25.7963 121.021 25.299 121.237 24.3044L121.853 21.3519C121.884 21.2276 121.884 21.0722 121.884 20.9478C121.884 19.8601 121.052 18.5858 119.356 17.1561C117.722 15.7886 116.92 14.1725 116.92 12.3388C116.92 11.8726 116.982 11.3753 117.074 10.878L117.629 8.42275Z" fill="black"/>
<path d="M131.597 3.10791H141.895L141.001 7.33474H135.081L133.632 14.2344H138.75L137.856 18.4612H132.768L131.319 25.3609H137.208L136.314 29.5878H126.016L131.597 3.10791Z" fill="black"/>
</svg>
