<svg width="24" height="24" viewBox="0 0 24 24" fill="none" xmlns="http://www.w3.org/2000/svg">
<path fill-rule="evenodd" clip-rule="evenodd" d="M12 1C12.2652 1 12.5196 1.10536 12.7071 1.29289C12.8946 1.48043 13 1.73478 13 2V3C13 3.26522 12.8946 3.51957 12.7071 3.70711C12.5196 3.89464 12.2652 4 12 4C11.7348 4 11.4804 3.89464 11.2929 3.70711C11.1054 3.51957 11 3.26522 11 3V2C11 1.73478 11.1054 1.48043 11.2929 1.29289C11.4804 1.10536 11.7348 1 12 1ZM3.293 3.293C3.48053 3.10553 3.73484 3.00021 4 3.00021C4.26516 3.00021 4.51947 3.10553 4.707 3.293L5.707 4.293C5.88916 4.4816 5.98995 4.7342 5.98767 4.9964C5.9854 5.2586 5.88023 5.50941 5.69482 5.69482C5.50941 5.88023 5.2586 5.9854 4.9964 5.98767C4.7342 5.98995 4.4816 5.88916 4.293 5.707L3.293 4.707C3.10553 4.51947 3.00021 4.26516 3.00021 4C3.00021 3.73484 3.10553 3.48053 3.293 3.293ZM20.707 3.293C20.8945 3.48053 20.9998 3.73484 20.9998 4C20.9998 4.26516 20.8945 4.51947 20.707 4.707L19.707 5.707C19.6148 5.80251 19.5044 5.87869 19.3824 5.9311C19.2604 5.98351 19.1292 6.0111 18.9964 6.01225C18.8636 6.0134 18.7319 5.9881 18.609 5.93782C18.4862 5.88754 18.3745 5.81329 18.2806 5.7194C18.1867 5.6255 18.1125 5.51385 18.0622 5.39095C18.0119 5.26806 17.9866 5.13638 17.9877 5.0036C17.9889 4.87082 18.0165 4.7396 18.0689 4.6176C18.1213 4.49559 18.1975 4.38525 18.293 4.293L19.293 3.293C19.4805 3.10553 19.7348 3.00021 20 3.00021C20.2652 3.00021 20.5195 3.10553 20.707 3.293ZM12 7C10.6739 7 9.40215 7.52678 8.46447 8.46447C7.52678 9.40215 7 10.6739 7 12C7 13.3261 7.52678 14.5979 8.46447 15.5355C9.40215 16.4732 10.6739 17 12 17C13.3261 17 14.5979 16.4732 15.5355 15.5355C16.4732 14.5979 17 13.3261 17 12C17 10.6739 16.4732 9.40215 15.5355 8.46447C14.5979 7.52678 13.3261 7 12 7ZM1 12C1 11.7348 1.10536 11.4804 1.29289 11.2929C1.48043 11.1054 1.73478 11 2 11H3C3.26522 11 3.51957 11.1054 3.70711 11.2929C3.89464 11.4804 4 11.7348 4 12C4 12.2652 3.89464 12.5196 3.70711 12.7071C3.51957 12.8946 3.26522 13 3 13H2C1.73478 13 1.48043 12.8946 1.29289 12.7071C1.10536 12.5196 1 12.2652 1 12ZM20 12C20 11.7348 20.1054 11.4804 20.2929 11.2929C20.4804 11.1054 20.7348 11 21 11H22C22.2652 11 22.5196 11.1054 22.7071 11.2929C22.8946 11.4804 23 11.7348 23 12C23 12.2652 22.8946 12.5196 22.7071 12.7071C22.5196 12.8946 22.2652 13 22 13H21C20.7348 13 20.4804 12.8946 20.2929 12.7071C20.1054 12.5196 20 12.2652 20 12ZM4.293 18.293C4.4816 18.1108 4.7342 18.01 4.9964 18.0123C5.2586 18.0146 5.50941 18.1198 5.69482 18.3052C5.88023 18.4906 5.9854 18.7414 5.98767 19.0036C5.98995 19.2658 5.88916 19.5184 5.707 19.707L4.707 20.707C4.5184 20.8892 4.2658 20.99 4.0036 20.9877C3.7414 20.9854 3.49059 20.8802 3.30518 20.6948C3.11977 20.5094 3.0146 20.2586 3.01233 19.9964C3.01005 19.7342 3.11084 19.4816 3.293 19.293L4.293 18.293ZM19.293 20.707L18.293 19.707C18.1108 19.5184 18.01 19.2658 18.0123 19.0036C18.0146 18.7414 18.1198 18.4906 18.3052 18.3052C18.4906 18.1198 18.7414 18.0146 19.0036 18.0123C19.2658 18.01 19.5184 18.1108 19.707 18.293L20.707 19.293C20.8892 19.4816 20.99 19.7342 20.9877 19.9964C20.9854 20.2586 20.8802 20.5094 20.6948 20.6948C20.5094 20.8802 20.2586 20.9854 19.9964 20.9877C19.7342 20.99 19.4816 20.8892 19.293 20.707ZM12 20C12.2652 20 12.5196 20.1054 12.7071 20.2929C12.8946 20.4804 13 20.7348 13 21V22C13 22.2652 12.8946 22.5196 12.7071 22.7071C12.5196 22.8946 12.2652 23 12 23C11.7348 23 11.4804 22.8946 11.2929 22.7071C11.1054 22.5196 11 22.2652 11 22V21C11 20.7348 11.1054 20.4804 11.2929 20.2929C11.4804 20.1054 11.7348 20 12 20Z" fill="#FAFF00"/>
<path d="M12 6C10.4087 6 8.88258 6.63214 7.75736 7.75736C6.63214 8.88258 6 10.4087 6 12C6 13.5913 6.63214 15.1174 7.75736 16.2426C8.88258 17.3679 10.4087 18 12 18C13.5913 18 15.1174 17.3679 16.2426 16.2426C17.3679 15.1174 18 13.5913 18 12C18 10.4087 17.3679 8.88258 16.2426 7.75736C15.1174 6.63214 13.5913 6 12 6Z" fill="#FAFF00"/>
</svg>
